# xmcd
#
# Track frame offsets:
#	150
#	12775
#	28810
#	40772
#	50417
#	72847
#	92785
#	104690
#	115480
#	133620
#	149295
#	160587
#
# Disc length: 2316 seconds
#
# Revision: 0
# Processed by: cddbd v1.5.2PL0 Copyright (c) Steve Scherf et al.
# Submitted via: EasyCDDAExtractor 16.0.1.1
#
DISCID=a2090a0c
DTITLE=The Dixie Bee-Liners - Ripe
DYEAR=2007
DGENRE=Country
TTITLE0=Down On The Crooked Road
TTITLE1=Lord, Lay Down My Ball and Chain
TTITLE2=Yellow-Haired Girl
TTITLE3=The Bugs In The Basement
TTITLE4=Dixie Grey To Black
TTITLE5=Why Do I Make You Cry
TTITLE6=She's My Angel
TTITLE7=Old Charlie Cross
TTITLE8=Lost In The Silence
TTITLE9=Grumble Jones
TTITLE10=Jefferson Railroad Line
TTITLE11=Ripe
EXTD=
EXTT0=
EXTT1=
EXTT2=
EXTT3=
EXTT4=
EXTT5=
EXTT6=
EXTT7=
EXTT8=
EXTT9=
EXTT10=
EXTT11=
PLAYORDER=
